<?xml version="1.0" encoding="UTF-8"?>
<svg version="1.1" xmlns="http://www.w3.org/2000/svg" width="560" height="558">
<path d="M0 0 C2.96415819 6.9241798 5.72564796 13.81783567 8 21 C4.75274924 23.66766811 1.37907202 25.26716367 -2.4375 27 C-18.04057728 34.49267857 -30.39632498 47.60255809 -38 63 C-38.5259375 63.97066406 -39.051875 64.94132812 -39.59375 65.94140625 C-50.20294957 85.88566133 -50.71849937 110.16938592 -44.2265625 131.546875 C-43.28680957 134.11610777 -42.18475721 136.53320345 -41 139 C-40.57920166 139.91604004 -40.57920166 139.91604004 -40.14990234 140.85058594 C-30.18350289 162.31903962 -14.38806443 176.1602248 7 186 C5.95841885 189.85153562 4.95244613 193.47817267 3.0625 197 C1.18386988 200.60246675 -0.43747308 204.2499354 -2 208 C-9.08399985 206.04933338 -14.8892712 203.04537074 -21 199 C-21.53818359 198.64518555 -22.07636719 198.29037109 -22.63085938 197.92480469 C-35.89907445 189.08682413 -46.7718638 178.79482588 -55 165 C-55 164.34 -55 163.68 -55 163 C-55.66 163 -56.32 163 -57 163 C-67 143.49315068 -67 143.49315068 -67 137 C-67.66 137 -68.32 137 -69 137 C-69.48362696 134.83432456 -69.96167317 132.66740259 -70.4375 130.5 C-70.70433594 129.2934375 -70.97117188 128.086875 -71.24609375 126.84375 C-75.98641427 102.67548373 -72.84655254 79.34537512 -63 57 C-62.32324219 55.39898437 -62.32324219 55.39898437 -61.6328125 53.765625 C-50.89462715 30.25598844 -30.02770872 11.31324281 -6.63671875 0.890625 C-4 0 -4 0 0 0 Z " fill="#E7A319" transform="translate(241,176)"/>
<path d="M0 0 C0.65077173 3.16567207 1.2946984 6.33270077 1.9375 9.5 C2.21110352 10.8303125 2.21110352 10.8303125 2.49023438 12.1875 C2.66748047 13.0640625 2.84472656 13.940625 3.02734375 14.84375 C3.18968506 15.63974609 3.35202637 16.43574219 3.51928711 17.25585938 C5.12426553 26.41784892 5.24064294 35.47544997 5.25 44.75 C5.25133942 45.53045685 5.25267883 46.3109137 5.25405884 47.11502075 C5.24951973 59.30846998 4.5878924 71.04814358 2 83 C1.77183594 84.13566406 1.54367187 85.27132812 1.30859375 86.44140625 C-0.06630829 92.5931108 -2.17321516 98.26063749 -4.703125 104.02734375 C-5.52787511 105.91781011 -6.31398481 107.82596751 -7.046875 109.75390625 C-13.15087075 125.65525749 -22.48706176 139.48714224 -33.55200195 152.31835938 C-35.73377648 154.85217542 -37.8642602 157.42731873 -40 160 C-41.5625 161.875 -41.5625 161.875 -43 163 C-47 163 -47 163 -49.1875 161.125 C-50.13731017 160.09454557 -51.07210388 159.05023068 -52 158 C-53.14855469 156.73349609 -53.14855469 156.73349609 -54.3203125 155.44140625 C-56.55702186 152.96980735 -58.78211009 150.48848215 -61 148 C-59.4074612 144.11933074 -56.74434347 141.46393721 -53.875 138.5 C-48.48589396 132.77600772 -44.14526378 126.68915634 -40 120 C-39.46761719 119.19175781 -38.93523437 118.38351562 -38.38671875 117.55078125 C-33.85469743 110.46583836 -30.94717617 102.83823448 -28 95 C-27.34 95 -26.68 95 -26 95 C-25.87955322 94.39124023 -25.75910645 93.78248047 -25.63500977 93.15527344 C-24.7714151 88.81105484 -23.8932659 84.47148821 -22.96484375 80.140625 C-19.47853214 63.68191392 -18.10594698 47.78808513 -19.875 31 C-19.96378418 30.12714355 -20.05256836 29.25428711 -20.14404297 28.35498047 C-20.69350314 23.1877373 -21.38410651 18.12276903 -22.6328125 13.0703125 C-23.11283828 10.36378418 -23.05468848 7.74223667 -23 5 C-19.91882573 4.15854044 -16.83474379 3.32826938 -13.75 2.5 C-12.44095703 2.14228516 -12.44095703 2.14228516 -11.10546875 1.77734375 C-10.26113281 1.55175781 -9.41679687 1.32617188 -8.546875 1.09375 C-7.38430176 0.77954102 -7.38430176 0.77954102 -6.19824219 0.45898438 C-4 0 -4 0 0 0 Z " fill="#A7AEB4" transform="translate(438,234)"/>
<path d="M0 0 C4.09507639 0.56017554 6.40884643 2.75091634 9.5 5.375 C12.61420557 8.00154151 15.71058248 10.59500134 19 13 C18.41263825 16.06534612 17.55902078 17.86681327 15.515625 20.21484375 C14.74085815 21.11106445 14.74085815 21.11106445 13.95043945 22.02539062 C13.10872192 22.97188477 13.10872192 22.97188477 12.25 23.9375 C11.38024536 24.92459961 11.38024536 24.92459961 10.49291992 25.93164062 C-5.61235823 44.02970519 -5.61235823 44.02970519 -15.78125 50.4375 C-18.14416591 52.00204206 -18.14416591 52.00204206 -20.37109375 54.4140625 C-23.20055276 57.19727478 -26.2117849 59.29286648 -29.5625 61.375 C-30.17311279 61.75930176 -30.78372559 62.14360352 -31.4128418 62.53955078 C-33.26990608 63.7018704 -35.13404212 64.85202592 -37 66 C-38.07765625 66.6703125 -39.1553125 67.340625 -40.265625 68.03125 C-46.06111659 71.53826543 -51.47802549 74.15210722 -58 76 C-58 76.66 -58 77.32 -58 78 C-95.89594922 92.51950259 -95.89594922 92.51950259 -109 93 C-109.67138621 89.73011701 -110.33629263 86.45894951 -111 83.1875 C-111.19078125 82.25873047 -111.3815625 81.32996094 -111.578125 80.37304688 C-111.75859375 79.48037109 -111.9390625 78.58769531 -112.125 77.66796875 C-112.29257812 76.84578857 -112.46015625 76.0236084 -112.6328125 75.17651367 C-113 73 -113 73 -113 70 C-112.03344482 69.75878418 -112.03344482 69.75878418 -111.04736328 69.51269531 C-108.07138933 68.76563793 -105.09823457 68.00788332 -102.125 67.25 C-101.11179687 66.99734375 -100.09859375 66.7446875 -99.0546875 66.484375 C-92.45797548 64.79291038 -86.25801259 62.67641668 -80 60 C-78.7188434 59.47633393 -77.43760001 58.95288014 -76.15625 58.4296875 C-45.62822871 45.44875537 -20.12324996 26.42323399 0 0 Z " fill="#E7A319" transform="translate(430,395)"/>
<path d="M0 0 C0.33 2.97 0.66 5.94 1 9 C1.66 9 2.32 9 3 9 C3.99 15.435 3.99 15.435 5 22 C1.38724879 23.44510049 -1.69241707 24.495764 -5.421875 25.3671875 C-6.44796875 25.61339844 -7.4740625 25.85960938 -8.53125 26.11328125 C-10.66053976 26.61717871 -12.79074102 27.11724144 -14.921875 27.61328125 C-21.33317463 29.16000729 -27.06363496 31.15353676 -33 34 C-34.48553966 34.64953581 -35.97386493 35.29273616 -37.46484375 35.9296875 C-45.65912236 39.47991033 -53.49861768 43.11448434 -61 48 C-61.88816406 48.54269531 -62.77632813 49.08539063 -63.69140625 49.64453125 C-73.23101219 55.52220223 -81.65708615 62.55603906 -90 70 C-90.81597656 70.7115625 -91.63195312 71.423125 -92.47265625 72.15625 C-99.03403714 77.93580722 -104.80128659 83.97009798 -110 91 C-113.49719419 89.40435348 -116.4629076 87.32710016 -119.5625 85.0625 C-120.51253906 84.37285156 -121.46257812 83.68320313 -122.44140625 82.97265625 C-123.28574219 82.32167969 -124.13007812 81.67070312 -125 81 C-125.94166016 80.28650391 -125.94166016 80.28650391 -126.90234375 79.55859375 C-128 78 -128 78 -128.09375 75.765625 C-126.45166339 71.61349172 -123.59260766 68.91122589 -120.5 65.75 C-119.85998047 65.08323242 -119.21996094 64.41646484 -118.56054688 63.72949219 C-117.28574443 62.40516412 -116.00654325 61.08505407 -114.72265625 59.76953125 C-113.32087978 58.3296112 -111.93868307 56.87064994 -110.5625 55.40625 C-101.75714801 46.20065474 -91.36963595 38.66778236 -80.7109375 31.7578125 C-79.07346631 30.69605164 -77.44898999 29.61329116 -75.8515625 28.4921875 C-56.22072208 14.72803502 -24.52858845 -1.25787633 0 0 Z " fill="#A7AEB4" transform="translate(243,71)"/>
<path d="M0 0 C0.16081055 0.64960693 0.32162109 1.29921387 0.48730469 1.96850586 C1.23307216 4.96035259 1.99144612 7.94887067 2.75 10.9375 C3.00265625 11.95908203 3.2553125 12.98066406 3.515625 14.03320312 C4.93365168 19.58123251 6.57959212 24.726189 9.02246094 29.90649414 C9.98117212 31.95967805 10.82440678 34.0272207 11.640625 36.140625 C15.27043201 45.45366632 19.44039921 53.65486726 25 62 C25.73669922 63.16015625 25.73669922 63.16015625 26.48828125 64.34375 C29.92905936 69.69391765 33.78502408 74.69151952 37.74951172 79.66015625 C41 83.78649477 41 83.78649477 41 86 C41.66 86 42.32 86 43 86 C44.4453125 87.50390625 44.4453125 87.50390625 46.125 89.5625 C49.29312862 93.31756613 52.69430236 96.45265657 56.49609375 99.5546875 C56.99238281 100.03164063 57.48867187 100.50859375 58 101 C58 101.66 58 102.32 58 103 C58.57234375 103.26554687 59.1446875 103.53109375 59.734375 103.8046875 C62.1076012 105.05676891 64.12213286 106.4936352 66.25 108.125 C66.95640625 108.66382813 67.6628125 109.20265625 68.390625 109.7578125 C68.92171875 110.16773438 69.4528125 110.57765625 70 111 C69.55608704 115.92928345 67.02211594 118.98121059 64 122.6875 C60.69825171 126.64350475 60.69825171 126.64350475 58 131 C48.21988192 129.33293442 39.45430754 117.65839601 32.75 111 C31.89857422 110.15783936 31.04714844 109.31567871 30.16992188 108.44799805 C25.00072881 103.25303985 20.34898729 97.89619529 16 92 C15.278125 91.04351562 14.55625 90.08703125 13.8125 89.1015625 C-6 62.03017241 -6 62.03017241 -6 54 C-6.66 54 -7.32 54 -8 54 C-9.41761591 50.22952286 -10.83391346 46.45855176 -12.25 42.6875 C-12.64574219 41.63498047 -13.04148437 40.58246094 -13.44921875 39.49804688 C-14.24623466 37.37484875 -15.04081542 35.25073498 -15.83300781 33.12573242 C-16.59128073 31.0947349 -17.3559059 29.06609366 -18.12792969 27.0402832 C-20.15383371 21.64549683 -21.70984799 16.48132846 -22.75 10.8125 C-22.99234375 9.51957031 -23.2346875 8.22664063 -23.484375 6.89453125 C-23.65453125 5.93933594 -23.8246875 4.98414063 -24 4 C-21.93771534 3.51990738 -19.87516299 3.04096456 -17.8125 2.5625 C-16.08966797 2.16224609 -16.08966797 2.16224609 -14.33203125 1.75390625 C-13.23246094 1.50511719 -12.13289063 1.25632812 -11 1 C-9.73736328 0.70416016 -9.73736328 0.70416016 -8.44921875 0.40234375 C-5.60226854 -0.06533707 -2.87999509 -0.06697663 0 0 Z " fill="#A7AEB4" transform="translate(96,318)"/>
<path d="M0 0 C8.31094838 3.61000622 15.67030376 11.18797629 21.3671875 18.08203125 C23.10154819 20.11928268 24.95172316 21.95333239 26.875 23.8125 C35.02907033 31.88786309 42.17247117 41.10749194 48 51 C48 51.66 48 52.32 48 53 C48.66 53 49.32 53 50 53 C58.45282291 67.87083895 65.90709337 82.41938134 71.23681641 98.73071289 C71.95617399 100.86968561 72.74555584 102.96468826 73.56640625 105.06640625 C75.15121159 109.2374423 76.2384753 113.47137317 77.25 117.8125 C77.435625 118.56208984 77.62125 119.31167969 77.8125 120.08398438 C79.12193387 125.63419839 79.12193387 125.63419839 78 129 C75.48056604 129.50812114 72.95983127 130.00664534 70.4375 130.5 C69.73302734 130.64308594 69.02855469 130.78617188 68.30273438 130.93359375 C63.78109762 131.80874925 59.60512972 132.14523405 55 132 C53.99425299 128.0639449 52.99638995 124.12593326 52 120.1875 C51.71382813 119.06794922 51.42765625 117.94839844 51.1328125 116.79492188 C50.72675781 115.18520508 50.72675781 115.18520508 50.3125 113.54296875 C50.06113281 112.55321045 49.80976563 111.56345215 49.55078125 110.54370117 C49 108 49 108 49 105 C48.34 105 47.68 105 47 105 C46.8141333 104.47156494 46.6282666 103.94312988 46.43676758 103.39868164 C41.6528996 89.7710957 41.6528996 89.7710957 35 77 C34.03423293 75.26966733 33.06869838 73.53920107 32.10693359 71.80664062 C28.78938702 65.86948855 25.26290855 60.30619933 21 55 C20.46890625 54.29746094 19.9378125 53.59492188 19.390625 52.87109375 C9.80194338 40.22547005 -1.15424074 28.37057801 -14 19 C-12.27653975 15.02429055 -9.64797254 11.76440486 -7 8.375 C-6.32324219 7.49714844 -6.32324219 7.49714844 -5.6328125 6.6015625 C-3.84059403 4.28970673 -2.07048207 2.07048207 0 0 Z " fill="#E7A319" transform="translate(411,112)"/>
<path d="M0 0 C34.79217748 1.24927029 67.4809485 16.73594569 93 40 C94.41543619 41.1889664 95.83195341 42.37664817 97.25 43.5625 C104.09904651 49.62347631 109.87561191 56.69221722 115.5 63.875 C115.9336084 64.42236816 116.3672168 64.96973633 116.81396484 65.53369141 C118.91891587 68.27190087 120.53073683 70.53080441 121 74 C118.93885782 75.43947997 116.87615188 76.87662571 114.8125 78.3125 C114.23435547 78.71662109 113.65621094 79.12074219 113.06054688 79.53710938 C103.76028963 86 103.76028963 86 100 86 C98.88671875 84.33984375 98.88671875 84.33984375 97.6875 81.9375 C85.23404148 60.07407158 62.28011893 44.68666875 39.78271484 34.79589844 C38.3358549 34.14994343 36.90858608 33.46023386 35.48828125 32.7578125 C23.95340806 27.08924625 10.63920215 25.38014276 -2 24 C-2.28545428 15.86455314 -1.18396883 8.02350304 0 0 Z " fill="#343D45" transform="translate(296,118)"/>
<path d="M0 0 C2.55680018 0.06555898 5.07599491 0.19325276 7.625 0.375 C8.32496094 0.41882813 9.02492187 0.46265625 9.74609375 0.5078125 C14.20540873 0.80565172 18.58354166 1.3160865 23 2 C22.98952637 2.56170898 22.97905273 3.12341797 22.96826172 3.70214844 C22.63876589 24.26435653 24.25823005 43.14681156 29.57275391 63.04907227 C30 65 30 65 30 68 C30.66 68 31.32 68 32 68 C32.46148437 69.19753906 32.92296875 70.39507812 33.3984375 71.62890625 C39.45265355 86.91438133 47.05722641 99.43707345 58.32910156 111.43481445 C59.82421875 113.07421875 59.82421875 113.07421875 62 116 C61.69234243 119.26639836 60.44733792 120.92902496 58.1640625 123.19921875 C57.59429687 123.76833984 57.02453125 124.33746094 56.4375 124.92382812 C55.839375 125.50583984 55.24125 126.08785156 54.625 126.6875 C54.03460938 127.28111328 53.44421875 127.87472656 52.8359375 128.48632812 C48.40099236 132.86633588 48.40099236 132.86633588 45 134 C27.80833149 115.60408418 14.46968703 95.2131642 6.68798828 71.12402344 C6.21170893 69.65360814 5.7193858 68.1883291 5.21435547 66.72753906 C3.59212575 62.02377255 2.3268172 57.39505987 1.375 52.5 C1.13523437 51.2934375 0.89546875 50.086875 0.6484375 48.84375 C-0.95602208 39.33297754 -1.1558717 30.04001593 -1.13037109 20.42236328 C-1.12495151 17.97812879 -1.13037264 15.53407308 -1.13671875 13.08984375 C-1.136059 11.53906209 -1.13477997 9.98828055 -1.1328125 8.4375 C-1.13483673 7.7053125 -1.13686096 6.973125 -1.13894653 6.21875 C-1.11499206 1.11499206 -1.11499206 1.11499206 0 0 Z " fill="#A7AEB4" transform="translate(119,261)"/>
<path d="M0 0 C4.24800558 0.90167195 7.51420208 2.98595495 11.125 5.3125 C11.75792969 5.70373047 12.39085937 6.09496094 13.04296875 6.49804688 C16.33675152 8.60648744 18.73132605 10.20266768 20 14 C11.31603468 25.78802101 2.40742678 35.96380512 -10 44 C-10.81726563 44.57363281 -11.63453125 45.14726562 -12.4765625 45.73828125 C-27.58897155 56.03389527 -47.16911157 63.17357215 -65.46484375 63.09765625 C-66.48210289 63.09553383 -66.48210289 63.09553383 -67.51991272 63.09336853 C-69.65915578 63.08782745 -71.79828925 63.07528653 -73.9375 63.0625 C-75.39908702 63.05747736 -76.86067569 63.0529158 -78.32226562 63.04882812 C-81.88154526 63.03787745 -85.44076191 63.02065445 -89 63 C-89.10983864 57.00311541 -88.92973512 51.3020614 -88 45.375 C-87.814375 44.16585937 -87.62875 42.95671875 -87.4375 41.7109375 C-87.293125 40.81632812 -87.14875 39.92171875 -87 39 C-85.89881836 38.98598145 -85.89881836 38.98598145 -84.77539062 38.97167969 C-53.43003298 38.4711746 -29.294587 31.97942907 -7 9 C-4.50767533 6.09976622 -2.18087028 3.14045321 0 0 Z " fill="#343D45" transform="translate(354,329)"/>
<path d="M0 0 C38.15268167 -0.67065261 67.89272772 6.56694068 96.25 33.9375 C100.68003915 38.47386009 105.10807302 43.31010756 108 49 C106.76578867 52.70263399 105.50602439 53.294163 102.3125 55.4375 C101.40886719 56.04464844 100.50523437 56.65179688 99.57421875 57.27734375 C98.29998047 58.13005859 98.29998047 58.13005859 97 59 C96.08154297 59.68255859 96.08154297 59.68255859 95.14453125 60.37890625 C91.55354156 63.02829967 91.55354156 63.02829967 89.08984375 62.90234375 C86.10188266 61.61221475 84.88213461 59.65413454 82.9375 57.0625 C75.64835918 47.86145339 67.4491418 40.40068003 57 35 C55.8553125 34.401875 54.710625 33.80375 53.53125 33.1875 C37.12115868 24.90068363 21.11831198 24.3862679 3 24 C3 21.69 3 19.38 3 17 C2.34 17 1.68 17 1 17 C0.67 11.39 0.34 5.78 0 0 Z " fill="#A7AEB4" transform="translate(266,168)"/>
<path d="M0 0 C2.00507927 1.11592209 4.00396096 2.24298712 6 3.375 C7.11375 4.00148438 8.2275 4.62796875 9.375 5.2734375 C10.674375 6.12808594 10.674375 6.12808594 12 7 C12 7.66 12 8.32 12 9 C12.83402344 9.26167969 13.66804688 9.52335937 14.52734375 9.79296875 C18.3024547 11.10512767 21.9205514 12.67732133 25.5625 14.3125 C43.28047395 22.1148359 59.83131568 25.94055458 79 28 C78.67 35.92 78.34 43.84 78 52 C61.26916555 51.51269414 43.01284793 49.58949156 27.75390625 42.3125 C24.98617645 40.99341176 22.17030964 39.8989767 19.30249023 38.81835938 C13.5240558 36.6235326 8.29112408 34.21845647 3.26171875 30.578125 C-0.46029538 27.98107197 -4.44477591 25.83530036 -8.3984375 23.61328125 C-10.63377532 22.22710329 -12.26576073 20.95249387 -14 19 C-12.33560611 15.26635965 -10.01873867 12.19231874 -7.5625 8.9375 C-6.78003906 7.89464844 -5.99757812 6.85179687 -5.19140625 5.77734375 C-3.54050529 3.68502542 -1.9451921 1.80759009 0 0 Z " fill="#E7A319" transform="translate(196,391)"/>
<path d="M0 0 C0.495 11.88 0.495 11.88 1 24 C-4.1046875 24.5878125 -4.1046875 24.5878125 -9.3125 25.1875 C-17.14503559 26.16614705 -24.79891453 27.43384799 -32.4375 29.4375 C-33.18620361 29.63045654 -33.93490723 29.82341309 -34.70629883 30.0222168 C-39.07288296 31.23020494 -42.96554482 32.84805876 -46.9753418 34.94946289 C-49.06530326 36.03388399 -51.18141221 37.02451648 -53.32421875 38 C-54.40219727 38.495 -54.40219727 38.495 -55.50195312 39 C-56.96868117 39.67110345 -58.43747091 40.33771777 -59.90820312 41 C-64.07915915 42.92563524 -67.50494554 44.95777194 -71 48 C-75.34959926 51.07654582 -75.34959926 51.07654582 -77.99560547 50.76513672 C-81.47446998 49.43715117 -83.11694299 46.1102717 -85.125 43.125 C-85.78822266 42.16787109 -85.78822266 42.16787109 -86.46484375 41.19140625 C-88.33871634 38.47966918 -90.17158475 35.74262288 -92 33 C-79.1125819 22.2930289 -64.2360766 14.57711067 -48.421875 9.17578125 C-46.66324634 8.57150359 -44.90481415 7.9614657 -43.18115234 7.26367188 C-37.6086602 5.01713277 -32.03423909 3.89103148 -26.125 2.875 C-25.19558594 2.70613281 -24.26617187 2.53726563 -23.30859375 2.36328125 C-15.54161561 0.98754035 -7.89496087 0 0 0 Z " fill="#E7A31A" transform="translate(274,117)"/>
<path d="M0 0 C2.97 0.495 2.97 0.495 6 1 C6 1.66 6 2.32 6 3 C7.05767578 3.18369141 7.05767578 3.18369141 8.13671875 3.37109375 C11.15503183 4.03405201 13.91889442 4.98175575 16.8125 6.0625 C17.78832031 6.42472656 18.76414063 6.78695312 19.76953125 7.16015625 C20.50558594 7.43730469 21.24164063 7.71445313 22 8 C21.40603161 12.61897775 20.10865036 16.40219638 18.3125 20.6875 C13.65755931 32.3291486 11.50678364 44.7589429 9 57 C6.1038504 56.6902353 3.20810424 56.37728812 0.3125 56.0625 C-0.50412109 55.97548828 -1.32074219 55.88847656 -2.16210938 55.79882812 C-6.15450219 55.36241272 -10.07652852 54.88697624 -14 54 C-14.37961932 46.76074779 -12.96818745 40.27756336 -11.3125 33.25 C-11.06822266 32.1465625 -10.82394531 31.043125 -10.57226562 29.90625 C-8.78843091 22.21092252 -6.17612633 15.21749182 -3 8 C-1.9624919 5.34538187 -0.97821188 2.67721146 0 0 Z " fill="#E7A319" transform="translate(85,195)"/>
<path d="M0 0 C4.20846271 0.48935613 8.01772477 1.57775885 12 3 C12 3.66 12 4.32 12 5 C12.57363281 5.09796875 13.14726562 5.1959375 13.73828125 5.296875 C23.20731923 6.96365559 32.59857931 8.9930646 42 11 C42.10350905 16.41697338 41.93652084 21.57216039 41.0625 26.9375 C40.88847656 28.03964844 40.71445313 29.14179688 40.53515625 30.27734375 C40 33 40 33 39 35 C25.17992037 33.35886554 11.77206595 30.69470096 -1 25 C-2.37464768 24.41583688 -3.74961302 23.83242033 -5.125 23.25 C-6.07375 22.8375 -7.0225 22.425 -8 22 C-4.85714286 4.85714286 -4.85714286 4.85714286 0 0 Z " fill="#343D45" transform="translate(209,455)"/>
<path d="M0 0 C2.52093298 0.311712 5.0417457 0.62434902 7.5625 0.9375 C8.26697266 1.02451172 8.97144531 1.11152344 9.69726562 1.20117188 C14.13911927 1.75384491 18.57074664 2.35394596 23 3 C23.24946164 9.3392605 22.39126318 14.8542466 20.875 21 C20.65489258 21.91120605 20.43478516 22.82241211 20.20800781 23.76123047 C18.11427316 32.1142681 15.22144237 40.02794957 12 48 C11.67 48.99 11.34 49.98 11 51 C3.40603076 49.58417523 -4.07086448 47.47487897 -11 44 C-12.34456437 39.9663069 -11.19441715 38.77277528 -9.4375 34.9375 C-4.61093123 23.81859008 -2.50325308 11.8066079 0 0 Z " fill="#343D45" transform="translate(467,310)"/>
<path d="M0 0 C12.27978976 2.02983629 24.07764395 4.21029988 35.62890625 9.015625 C39.05244736 10.43693037 42.52418527 11.71266121 46 13 C45.42389687 18.54955043 43.97901452 23.26029497 41.9375 28.4375 C41.51500977 29.53481445 41.51500977 29.53481445 41.08398438 30.65429688 C40.39586753 32.43873546 39.69885394 34.21973905 39 36 C37.47757149 35.56808366 35.95714081 35.12912438 34.4375 34.6875 C33.59058594 34.44386719 32.74367188 34.20023438 31.87109375 33.94921875 C29 33 29 33 25.82421875 31.55859375 C21.17675002 29.52267442 16.30761923 28.49416571 11.375 27.375 C10.446875 27.1584375 9.51875 26.941875 8.5625 26.71875 C4.38560873 25.74932824 0.20759131 24.82730911 -4 24 C-4.30687619 16.0212191 -4.01371187 7.08302095 0 0 Z " fill="#E7A319" transform="translate(317,70)"/>
<path d="M0 0 C1.31335582 2.26107806 2.45968129 4.45270513 3.5625 6.8125 C3.86607422 7.44220703 4.16964844 8.07191406 4.48242188 8.72070312 C5.32841929 10.47720756 6.16452886 12.23846447 7 14 C7.40089844 14.74636719 7.80179687 15.49273437 8.21484375 16.26171875 C9 18 9 18 9 21 C0.38543778 24.48767701 -8.23375189 27.90765421 -17 31 C-17.76699219 31.28875 -18.53398437 31.5775 -19.32421875 31.875 C-24.85302084 33.88196481 -30.13751119 34.64506853 -36 35 C-36.48753366 33.04373287 -36.96451433 31.08483537 -37.4375 29.125 C-37.70433594 28.03445313 -37.97117187 26.94390625 -38.24609375 25.8203125 C-39.15209588 21.2292758 -39.60598971 16.65883404 -40 12 C-39.42668945 11.84442627 -38.85337891 11.68885254 -38.26269531 11.52856445 C-21.05399498 7.0396635 -21.05399498 7.0396635 -4.87890625 -0.203125 C-3 -1 -3 -1 0 0 Z " fill="#343D45" transform="translate(346,405)"/>
<path d="M0 0 C3.83004662 0.59264001 5.99182789 2.36609435 8.9375 4.8125 C10.18853516 5.84310547 10.18853516 5.84310547 11.46484375 6.89453125 C12.30144531 7.58933594 13.13804687 8.28414062 14 9 C15.66418674 10.33642735 17.33013233 11.6706778 19 13 C18.37658569 16.72316877 16.70328007 19.10000483 14.5 22.125 C12.05517657 25.44469454 12.05517657 25.44469454 10 29 C9.34 29 8.68 29 8 29 C7.61714844 29.99580078 7.61714844 29.99580078 7.2265625 31.01171875 C5.72512418 34.66968153 4.05897672 38.23576083 2.375 41.8125 C2.05015625 42.50537109 1.7253125 43.19824219 1.390625 43.91210938 C0.59500115 45.60866023 -0.20232699 47.30441165 -1 49 C-6.30018387 48.40644629 -10.58136893 46.62627368 -15.375 44.4375 C-16.11105469 44.10814453 -16.84710938 43.77878906 -17.60546875 43.43945312 C-19.40644557 42.63252195 -21.20362181 41.8171174 -23 41 C-21.15742095 26.71483656 -8.8296937 11.15329731 0 0 Z " fill="#343D45" transform="translate(154,176)"/>
</svg>
