<?xml version="1.0" encoding="UTF-8"?>
<svg version="1.1" xmlns="http://www.w3.org/2000/svg" width="404" height="455">
<path d="M0 0 C0.76505859 -0.020625 1.53011719 -0.04125 2.31835938 -0.0625 C12.78487078 -0.13304094 20.46310624 4.1976145 29.25 9.5 C31.38627383 10.76767716 33.5230085 12.03457797 35.66015625 13.30078125 C36.75730957 13.95385254 37.85446289 14.60692383 38.98486328 15.27978516 C44.35919316 18.46179852 49.77328106 21.57400678 55.1875 24.6875 C57.3724652 25.94649421 59.55736069 27.2056094 61.7421875 28.46484375 C63.36979004 29.40239502 63.36979004 29.40239502 65.03027344 30.35888672 C71.54121257 34.11028024 78.04913194 37.86690994 84.55761719 41.62255859 C89.99835336 44.76182246 95.43981477 47.89981497 100.8828125 51.03515625 C112.36045062 57.64846202 123.8221644 64.28751247 135.25854492 70.97192383 C141.62181928 74.68841987 147.99765934 78.38236842 154.38330078 82.06030273 C157.68064847 83.96004366 160.97513211 85.86468315 164.26953125 87.76953125 C167.98356763 89.91509476 171.70775238 92.03939805 175.44921875 94.13671875 C188.84566092 101.69940869 197.26531443 109.10844328 202.3125 124.25 C202.41485768 126.97342507 202.46030731 129.67153486 202.45967102 132.39526367 C202.46334771 133.23536106 202.4670244 134.07545845 202.4708125 134.94101334 C202.48185849 137.76667127 202.48569478 140.59229244 202.48950195 143.41796875 C202.49576607 145.43994768 202.50241283 147.46192546 202.50941467 149.48390198 C202.5304691 156.13509314 202.54082048 162.78628457 202.55078125 169.4375 C202.55482873 171.72766126 202.55894564 174.01782239 202.56313133 176.3079834 C202.58218848 187.07054103 202.59641666 197.8330918 202.6047433 208.59566307 C202.61450871 221.01277486 202.64080796 233.42970806 202.68124419 245.84675694 C202.71143214 255.44691143 202.72621485 265.04701482 202.72952431 274.64721584 C202.73187235 280.37926083 202.74080053 286.11111513 202.76598549 291.84310913 C202.78931696 297.24069774 202.79347892 302.63797083 202.78322411 308.03559685 C202.78272982 310.01121001 202.78901845 311.98683896 202.80278015 313.96240425 C202.8966431 328.24202044 202.21654727 339.25044578 191.76953125 349.984375 C184.91578594 356.30420374 177.00277275 360.63132292 168.87524414 365.07739258 C162.45618534 368.58973226 156.12504964 372.23750149 149.8125 375.9375 C141.3699365 380.88189042 132.91446308 385.80228684 124.4375 390.6875 C123.35791016 391.30971436 122.27832031 391.93192871 121.16601562 392.57299805 C118.9756748 393.83511517 116.78524498 395.09707785 114.59472656 396.35888672 C109.16590058 399.48680148 103.73930719 402.61858448 98.3125 405.75 C96.14584417 407.00001879 93.9791775 408.25001878 91.8125 409.5 C90.74 410.11875 89.6675 410.7375 88.5625 411.375 C78.8125 417 78.8125 417 75.56030273 418.8762207 C73.40090605 420.1220577 71.24156331 421.36798818 69.08227539 422.61401367 C63.55482403 425.80348953 58.02634879 428.99116885 52.49609375 432.17578125 C50.81543823 433.14414917 50.81543823 433.14414917 49.10083008 434.13208008 C46.89150603 435.40487609 44.6817182 436.67686744 42.47143555 437.94799805 C37.67501481 440.71104548 32.89060242 443.48841275 28.1484375 446.34375 C26.9874353 447.0402063 26.9874353 447.0402063 25.80297852 447.75073242 C24.41370528 448.58747327 23.0283238 449.43073403 21.64819336 450.2824707 C14.67682363 454.47892757 8.39641634 455.59628148 0.4375 455.5625 C-0.68978516 455.58666992 -0.68978516 455.58666992 -1.83984375 455.61132812 C-12.2101098 455.62022201 -19.92231653 451.25156943 -28.625 446 C-30.76127383 444.73232284 -32.8980085 443.46542203 -35.03515625 442.19921875 C-36.13230957 441.54614746 -37.22946289 440.89307617 -38.35986328 440.22021484 C-43.73419388 437.03820106 -49.14830713 433.9260397 -54.5625 430.8125 C-56.74485005 429.5547888 -58.92714142 428.29697577 -61.109375 427.0390625 C-63.3020405 425.77596731 -65.49474889 424.51294656 -67.6875 423.25 C-81.36304314 415.37337411 -95.02710958 407.47879908 -108.65332031 399.51708984 C-121.43469295 392.05395797 -134.26501437 384.67559996 -147.09130859 377.29003906 C-148.78441162 376.31502441 -148.78441162 376.31502441 -150.51171875 375.3203125 C-151.6308667 374.67586182 -152.75001465 374.03141113 -153.90307617 373.36743164 C-157.17729716 371.47942253 -160.44816032 369.58569691 -163.71875 367.69140625 C-167.39091222 365.56624748 -171.07490257 363.46724551 -174.78125 361.40234375 C-186.83173183 354.63440488 -197.22772015 347.35797123 -201.23327494 333.33998621 C-201.9769313 329.91826499 -201.84662149 326.45309102 -201.8548584 322.96670532 C-201.86065178 322.12378665 -201.86644517 321.28086798 -201.87241411 320.41240633 C-201.89047588 317.58304855 -201.90134613 314.7537107 -201.91210938 311.92431641 C-201.92328563 309.89720478 -201.93479899 307.870095 -201.94662476 305.84298706 C-201.98318374 299.17920501 -202.0084075 292.51540409 -202.03125 285.8515625 C-202.03519587 284.71680969 -202.03914173 283.58205688 -202.04320717 282.41291761 C-202.07963421 271.70441037 -202.11106933 260.99589647 -202.13231659 250.28734779 C-202.15986467 236.60651986 -202.21057809 222.92621183 -202.29279089 209.24560034 C-202.34867826 199.6182096 -202.37756674 189.99095946 -202.3867898 180.36341226 C-202.39303319 174.61824959 -202.41103 168.87369655 -202.45817566 163.1287117 C-202.50204181 157.71615552 -202.51226894 152.30453817 -202.49754715 146.89183426 C-202.49787415 144.91422573 -202.51002052 142.93657507 -202.53539658 140.95912933 C-202.71505783 126.16806991 -200.60915614 115.81659606 -190.6875 104.25 C-179.51005858 95.67237486 -166.42518489 89.31257474 -154.18630981 82.37442017 C-147.96057717 78.84291801 -141.75959777 75.26898862 -135.5625 71.6875 C-134.49870117 71.07310059 -133.43490234 70.45870117 -132.33886719 69.82568359 C-130.19422653 68.58694071 -128.04969494 67.34800896 -125.90527344 66.10888672 C-120.50079351 62.98675393 -115.09399893 59.86863474 -109.6875 56.75 C-108.61628906 56.13189453 -107.54507813 55.51378906 -106.44140625 54.87695312 C-101.00103925 51.73777626 -95.55987045 48.60000371 -90.1171875 45.46484375 C-79.6251768 39.41944711 -69.14286561 33.3585883 -58.6875 27.25 C-50.02907671 22.19407604 -41.36446827 17.14902339 -32.6875 12.125 C-31.06714844 11.18333984 -31.06714844 11.18333984 -29.4140625 10.22265625 C-19.39719301 4.43204782 -11.67205825 0.07672676 0 0 Z M-97.15136719 134.67480469 C-105.31718861 143.04827574 -111.97983311 152.01263152 -117.6875 162.25 C-118.59628906 163.86455078 -118.59628906 163.86455078 -119.5234375 165.51171875 C-134.50474003 193.6752591 -137.36007287 226.29587694 -130.6875 257.25 C-130.54828125 257.9114502 -130.4090625 258.57290039 -130.265625 259.25439453 C-123.33195969 291.08986938 -103.22549756 319.94548868 -76.53515625 338.43359375 C-57.96085396 350.2118596 -38.46103489 358.01893281 -16.6875 361.25 C-15.39005859 361.44722656 -15.39005859 361.44722656 -14.06640625 361.6484375 C18.59701482 365.72447993 54.03639832 357.026642 80.17578125 336.8125 C94.70464005 325.1138215 106.07320352 311.76467547 116.3125 296.25 C113.8041488 293.43215963 111.01327062 291.79276277 107.73828125 289.94921875 C106.60640381 289.30799072 105.47452637 288.6667627 104.30834961 288.00610352 C103.08058907 287.31652866 101.85280536 286.62699506 100.625 285.9375 C98.08985219 284.50488505 95.55662598 283.06888846 93.0234375 281.6328125 C92.38166061 281.26956375 91.73988373 280.906315 91.07865906 280.53205872 C83.56676603 276.27374023 76.12455206 271.89757366 68.69067383 267.50463867 C67.7602124 266.95783447 66.82975098 266.41103027 65.87109375 265.84765625 C65.05954834 265.36820557 64.24800293 264.88875488 63.41186523 264.39477539 C61.22785973 263.12370671 61.22785973 263.12370671 58.3125 262.25 C57.81621094 262.96285156 57.31992187 263.67570313 56.80859375 264.41015625 C49.68819094 274.44897842 42.98080902 281.04101318 32.3125 287.25 C31.62027344 287.65347656 30.92804688 288.05695313 30.21484375 288.47265625 C14.91317903 296.7361836 -3.27918273 296.7976859 -19.6875 292.25 C-36.91382616 286.54434911 -50.87474562 275.50079337 -59.0625 259.25 C-67.84900349 241.07131937 -68.84103083 222.66242864 -62.43359375 203.5 C-59.24050824 195.565139 -55.14454749 188.82423831 -49.6875 182.25 C-49.15640625 181.60546875 -48.6253125 180.9609375 -48.078125 180.296875 C-38.49337204 169.76313659 -22.44087941 162.09678526 -8.23071289 161.07299805 C13.3120568 160.55944166 30.86694009 163.70587895 47.18896484 178.96630859 C51.59219154 183.28614649 55.0314933 188.05688344 58.3125 193.25 C66.32969956 189.35630901 74.08551224 185.17048847 81.75 180.625 C83.83155274 179.40022806 85.91359474 178.1762873 87.99609375 176.953125 C89.03878418 176.34017578 90.08147461 175.72722656 91.15576172 175.09570312 C96.18786357 172.15349972 101.2482796 169.26147009 106.3125 166.375 C107.22056396 165.85728027 108.12862793 165.33956055 109.06420898 164.80615234 C111.1464504 163.61984653 113.22915931 162.43437392 115.3125 161.25 C114.55322449 156.63455764 112.82530702 153.78947824 109.9375 150.1875 C109.49269287 149.62313232 109.04788574 149.05876465 108.58959961 148.47729492 C85.87407642 120.03430264 55.17802747 98.72167583 18.3125 94.25 C-24.71457719 89.81258504 -66.41242956 104.0892741 -97.15136719 134.67480469 Z " fill="#000000" transform="translate(201.6875,-0.25)"/>
</svg>
